# xmcd
#
# Track frame offsets: 
#        150
#        25599
#        42828
#        65307
#        82248
#        102272
#        116718
#        137013
#        152830
#        172937
#
# Disc length: 2520 seconds
#
# Revision: 3
# Processed by: cddbd v1.5.2PL0 Copyright (c) Steve Scherf et al.
# Submitted via: ExactAudioCopy v1.0b3
#
DISCID=7b09d60a
DTITLE=张国荣 - Dreaming (环球复黑王系列)
DYEAR=2004
DGENRE=Pop
TTITLE0=Dreaming
TTITLE1=Miss You Much
TTITLE2=想你
TTITLE3=侧面
TTITLE4=共同度过
TTITLE5=无心睡眠
TTITLE6=风再起时
TTITLE7=暴风一族
TTITLE8=无需要太多
TTITLE9=拒绝再玩
EXTD=YEAR: 2004
EXTT0=
EXTT1=
EXTT2=
EXTT3=
EXTT4=
EXTT5=
EXTT6=
EXTT7=
EXTT8=
EXTT9=
PLAYORDER=
